name Run_20002_IK.mot
datacolumns 164
datarows 4
range 1.16 1.19
endheader
time	         pelvis_tilt	         pelvis_list	     pelvis_rotation	           pelvis_tx	           pelvis_ty	           pelvis_tz	       hip_flexion_r	     hip_adduction_r	      hip_rotation_r	        knee_angle_r	       ankle_angle_r	       hip_flexion_l	     hip_adduction_l	      hip_rotation_l	        knee_angle_l	       ankle_angle_l	    lumbar_extension	      lumbar_bending	     lumbar_rotation	          arm_flex_r	           arm_add_r	           arm_rot_r	        elbow_flex_r	           pro_sup_r	          arm_flex_l	           arm_add_l	           arm_rot_l	        elbow_flex_l	           pro_sup_l	    subtalar_angle_r	         mtp_angle_r	    subtalar_angle_l	         mtp_angle_l	        wrist_flex_r	         wrist_dev_r	        wrist_flex_l	         wrist_dev_l	             LASI_tx	             LASI_ty	             LASI_tz	             RASI_tx	             RASI_ty	             RASI_tz	             LPSI_tx	             LPSI_ty	             LPSI_tz	             RPSI_tx	             RPSI_ty	             RPSI_tz	             RTH1_tx	             RTH1_ty	             RTH1_tz	             RTH2_tx	             RTH2_ty	             RTH2_tz	             RTH3_tx	             RTH3_ty	             RTH3_tz	             LTH1_tx	             LTH1_ty	             LTH1_tz	             LTH2_tx	             LTH2_ty	             LTH2_tz	             LTH3_tx	             LTH3_ty	             LTH3_tz	             RTB1_tx	             RTB1_ty	             RTB1_tz	             RTB2_tx	             RTB2_ty	             RTB2_tz	             RTB3_tx	             RTB3_ty	             RTB3_tz	             LTB1_tx	             LTB1_ty	             LTB1_tz	             LTB2_tx	             LTB2_ty	             LTB2_tz	             LTB3_tx	             LTB3_ty	             LTB3_tz	             RCAL_tx	             RCAL_ty	             RCAL_tz	             RTOE_tx	             RTOE_ty	             RTOE_tz	             RMT5_tx	             RMT5_ty	             RMT5_tz	             LCAL_tx	             LCAL_ty	             LCAL_tz	             LTOE_tx	             LTOE_ty	             LTOE_tz	             LMT5_tx	             LMT5_ty	             LMT5_tz	             LACR_tx	             LACR_ty	             LACR_tz	             RACR_tx	             RACR_ty	             RACR_tz	             CLAV_tx	             CLAV_ty	             CLAV_tz	               C7_tx	               C7_ty	               C7_tz	             RUA1_tx	             RUA1_ty	             RUA1_tz	             RUA2_tx	             RUA2_ty	             RUA2_tz	             RUA3_tx	             RUA3_ty	             RUA3_tz	             RLEL_tx	             RLEL_ty	             RLEL_tz	             RMEL_tx	             RMEL_ty	             RMEL_tz	             LUA1_tx	             LUA1_ty	             LUA1_tz	             LUA2_tx	             LUA2_ty	             LUA2_tz	             LUA3_tx	             LUA3_ty	             LUA3_tz	             LLEL_tx	             LLEL_ty	             LLEL_tz	             LMEL_tx	             LMEL_ty	             LMEL_tz	      RFAsuperior_tx	      RFAsuperior_ty	      RFAsuperior_tz	        RFAradius_tx	        RFAradius_ty	        RFAradius_tz	          RFAulna_tx	          RFAulna_ty	          RFAulna_tz	      LFAsuperior_tx	      LFAsuperior_ty	      LFAsuperior_tz	        LFAradius_tx	        LFAradius_ty	        LFAradius_tz	          LFAulna_tx	          LFAulna_ty	          LFAulna_tz	
1.16	        -12.01469060	         -2.71993402	         -4.87288067	          1.01604547	          0.99041858	         -0.33863333	         20.58807307	          6.90923530	          2.26594386	        -35.28881224	         20.99250229	         37.68414349	         -2.48410658	          0.78806334	        -80.08924257	          6.99297795	         -1.91668796	          6.35572424	          9.72932109	        -16.18695280	        -19.64634151	         -7.79725135	         98.46600527	        110.36291593	        -33.28973265	        -14.65631195	         -1.31161820	        103.05779193	        102.44813912	          0.00000000	          0.00000000	          0.00000000	          0.00000000	          0.00000000	          0.00000000	          0.00000000	          0.00000000	          1.04875066	          1.02445150	         -0.46747985	          1.02496405	          1.03724900	         -0.22266363	          0.87857474	          1.08798216	         -0.40987078	          0.86848935	          1.08718095	         -0.29658630	          0.94891154	          0.91857314	         -0.16627479	          0.90854041	          0.76898000	         -0.19283655	          0.96393900	          0.61819088	         -0.20141404	          1.00831575	          0.90076707	         -0.51426290	          0.98513744	          0.74076152	         -0.47992367	          1.08243849	          0.63180354	         -0.47735928	          0.98309146	          0.36036206	         -0.28053624	          0.90750872	          0.34148680	         -0.21033089	          0.87398526	          0.20127680	         -0.30009237	          1.08221385	          0.42544988	         -0.41971833	          0.94513142	          0.42635185	         -0.47594131	          0.89799071	          0.30989993	         -0.42831253	          0.70491722	          0.11107623	         -0.29730082	          0.94475644	          0.07048656	         -0.31915641	          0.89344777	          0.05191554	         -0.22380061	          0.71066742	          0.31793849	         -0.40603181	          0.86058805	          0.13334102	         -0.41710711	          0.79789306	          0.14872171	         -0.50905765	          1.01557937	          1.52392588	         -0.48982031	          1.04765632	          1.48676059	         -0.16740222	          1.09132524	          1.45943237	         -0.30123652	          0.97573832	          1.54179040	         -0.32507190	          0.95232341	          1.38162148	         -0.09797802	          0.99753045	          1.32055963	         -0.08298646	          0.94020020	          1.23736270	         -0.04111046	          0.91558628	          1.17597680	         -0.01497411	          0.90795668	          1.15368951	         -0.10197874	          0.90226699	          1.44398030	         -0.54077055	          0.91664996	          1.36754786	         -0.57596729	          0.83281150	          1.31960775	         -0.59793016	          0.80407971	          1.25917950	         -0.62266525	          0.78597996	          1.23897768	         -0.53591708	          1.01091198	          1.12108044	         -0.02994382	          1.15137649	          1.08767894	         -0.14061963	          1.13485328	          1.03804535	         -0.09493812	          0.85177110	          1.18576846	         -0.61993028	          1.01032663	          1.12414783	         -0.53224717	          0.98070246	          1.06944689	         -0.56905075	
1.17	        -12.00988264	         -2.62955147	         -4.73982994	          1.01619573	          0.99630871	         -0.33888022	         17.89173081	          6.59333091	          2.20997267	        -32.44251677	         19.54027531	         38.53216425	         -2.55613913	          0.45613446	        -78.00202515	          7.34559779	         -1.94252827	          6.04123665	         10.44683945	        -15.77449954	        -19.66600446	         -7.37591546	        100.68151890	        110.24127759	        -34.64978540	        -15.33861862	         -1.61316421	        104.81730931	        101.78442969	          0.00000000	          0.00000000	          0.00000000	          0.00000000	          0.00000000	          0.00000000	          0.00000000	          0.00000000	          1.04889096	          1.02954798	         -0.46753926	          1.02517203	          1.04236043	         -0.22266365	          0.87783393	          1.09366998	         -0.40922395	          0.86843203	          1.09248263	         -0.29603041	          0.94676431	          0.92253283	         -0.16706390	          0.90138616	          0.77442384	         -0.19336788	          0.95140039	          0.62216066	         -0.20257893	          1.00803957	          0.90751238	         -0.51521092	          0.98773072	          0.74698402	         -0.48196506	          1.08738279	          0.64020243	         -0.47822099	          0.96121295	          0.36399759	         -0.28069201	          0.88221974	          0.34609683	         -0.21165972	          0.85640960	          0.20489506	         -0.30079020	          1.09329232	          0.43219920	         -0.42029534	          0.95580052	          0.42623456	         -0.47519940	          0.91487435	          0.30786492	         -0.42738761	          0.68698873	          0.11646347	         -0.29733856	          0.92526478	          0.07019548	         -0.31955925	          0.87352218	          0.05222666	         -0.22403658	          0.72728164	          0.30562912	         -0.40336906	          0.88769680	          0.12983367	         -0.41563847	          0.82316126	          0.14133606	         -0.50681884	          1.01421861	          1.52989826	         -0.49035417	          1.05008313	          1.49326462	         -0.16880154	          1.09227303	          1.46471986	         -0.30316152	          0.97640825	          1.54695271	         -0.32533362	          0.95622862	          1.38788867	         -0.09806564	          1.00256047	          1.32682674	         -0.08400689	          0.94748025	          1.24295281	         -0.04143025	          0.92360309	          1.18117346	         -0.01506778	          0.91413621	          1.15986851	         -0.10235252	          0.89900569	          1.45275199	         -0.53982433	          0.91127056	          1.37690111	         -0.57684145	          0.82653843	          1.33071521	         -0.59865827	          0.79605528	          1.27129883	         -0.62302196	          0.77831758	          1.25089546	         -0.53630035	          1.01998063	          1.13023052	         -0.03349186	          1.15841054	          1.10386022	         -0.14824457	          1.14529079	          1.05269107	         -0.10307851	          0.84375625	          1.19868236	         -0.62100499	          1.00316151	          1.13752446	         -0.53556955	          0.97344288	          1.08229385	         -0.57142596	
1.18	        -11.91468426	         -2.53692550	         -4.52277225	          1.01680903	          1.00281669	         -0.33915781	         14.97282667	          6.20774160	          1.93133930	        -29.30897547	         17.51595926	         39.07689679	         -2.61857996	          0.03581051	        -75.50038714	          7.65209029	         -2.02428378	          5.71276874	         11.00034934	        -15.48848674	        -19.66416818	         -6.90106884	        102.87375316	        110.13394469	        -35.98816216	        -15.97765848	         -2.07603561	        106.54895275	        101.72974323	          0.00000000	          0.00000000	          0.00000000	          0.00000000	          0.00000000	          0.00000000	          0.00000000	          0.00000000	          1.04950701	          1.03523670	         -0.46751780	          1.02585578	          1.04806374	         -0.22258238	          0.87704798	          1.10005590	         -0.40839562	          0.86882868	          1.09834933	         -0.29539181	          0.94494611	          0.92710623	         -0.16782533	          0.89459406	          0.78059487	         -0.19392846	          0.93926025	          0.62704505	         -0.20355268	          1.00763238	          0.91480940	         -0.51615677	          0.98980941	          0.75366684	         -0.48402350	          1.09145173	          0.64888645	         -0.47913674	          0.93981085	          0.36887944	         -0.28039090	          0.85503356	          0.35216325	         -0.21285030	          0.83927412	          0.20951762	         -0.29999644	          1.10369306	          0.43912978	         -0.42140590	          0.96608338	          0.42562235	         -0.47435220	          0.93199211	          0.30548190	         -0.42617366	          0.66993252	          0.12326027	         -0.29731900	          0.90588949	          0.06968873	         -0.32022883	          0.85381586	          0.05271554	         -0.22439721	          0.74480494	          0.29242241	         -0.40024479	          0.91543265	          0.12652424	         -0.41391284	          0.84937965	          0.13384525	         -0.50432970	          1.01316565	          1.53619715	         -0.49105256	          1.05252851	          1.49999030	         -0.17039237	          1.09332585	          1.47055531	         -0.30524308	          0.97723758	          1.55254590	         -0.32568203	          0.95994209	          1.39469730	         -0.09822878	          1.00721285	          1.33353342	         -0.08506819	          0.95415372	          1.24914389	         -0.04177568	          0.93077943	          1.18702038	         -0.01530408	          0.91905905	          1.16683498	         -0.10257111	          0.89620176	          1.46223417	         -0.53893020	          0.90651170	          1.38663526	         -0.57762583	          0.82098959	          1.34203004	         -0.59940010	          0.78862672	          1.28369267	         -0.62319531	          0.77146646	          1.26304952	         -0.53648933	          1.02781659	          1.13975503	         -0.03694770	          1.16395098	          1.12043946	         -0.15565548	          1.15420643	          1.06797708	         -0.11121332	          0.83623955	          1.21162024	         -0.62197019	          0.99668130	          1.15129303	         -0.53847346	          0.96711212	          1.09593222	         -0.57415636	
1.19	        -11.84597324	         -2.28216495	         -4.29092882	          1.01749622	          1.00938492	         -0.33933930	         12.51640307	          5.68637826	          1.62016638	        -26.85605842	         15.08249692	         39.46682887	         -2.54606545	         -0.57971352	        -72.61072720	          7.93778417	         -2.07930911	          5.18842898	         11.43427701	        -15.28981693	        -19.59939393	         -6.39337225	        105.06288462	        110.07085499	        -37.32395626	        -16.58673661	         -2.69586008	        108.29236447	        101.82787124	          0.00000000	          0.00000000	          0.00000000	          0.00000000	          0.00000000	          0.00000000	          0.00000000	          0.00000000	          1.05040975	          1.04135403	         -0.46735268	          1.02682621	          1.05419546	         -0.22235716	          0.87628783	          1.10690076	         -0.40740313	          0.86950119	          1.10463387	         -0.29460876	          0.94351375	          0.93216313	         -0.16851838	          0.88832197	          0.78730626	         -0.19441203	          0.92784215	          0.63268399	         -0.20423644	          1.00692547	          0.92241940	         -0.51712713	          0.99135141	          0.76071117	         -0.48581486	          1.09440198	          0.65763580	         -0.48005636	          0.92282149	          0.37429550	         -0.27981432	          0.83375257	          0.35868542	         -0.21338007	          0.82282562	          0.21508250	         -0.29851498	          1.11325084	          0.44604152	         -0.42276815	          0.97596539	          0.42447298	         -0.47342788	          0.94931223	          0.30266123	         -0.42456750	          0.65385917	          0.13143847	         -0.29724036	          0.88664326	          0.06901123	         -0.32117886	          0.83437773	          0.05349136	         -0.22487777	          0.76337908	          0.27834017	         -0.39672714	          0.94383814	          0.12361640	         -0.41203871	          0.87654665	          0.12636251	         -0.50154829	          1.01251446	          1.54266746	         -0.49178734	          1.05505829	          1.50673506	         -0.17215604	          1.09447082	          1.47674565	         -0.30737460	          0.97820023	          1.55844983	         -0.32615849	          0.96368106	          1.40182504	         -0.09830810	          1.01153216	          1.34049174	         -0.08617484	          0.96006204	          1.25575162	         -0.04208909	          0.93707617	          1.19326529	         -0.01574972	          0.92290567	          1.17412697	         -0.10276203	          0.89394006	          1.47221536	         -0.53825137	          0.90248695	          1.39642241	         -0.57828357	          0.81615616	          1.35341414	         -0.60002933	          0.78186887	          1.29616637	         -0.62312806	          0.76538737	          1.27527327	         -0.53640642	          1.03454563	          1.14951465	         -0.04034159	          1.16809880	          1.13708067	         -0.16267210	          1.16161156	          1.08357924	         -0.11901407	          0.82935724	          1.22449293	         -0.62275148	          0.99092748	          1.16513506	         -0.54110447	          0.96154532	          1.10976837	         -0.57687158	
